HIERARCHY
ROOT hip
{
  OFFSET 0 0 0
  CHANNELS 6 Xposition Yposition Zposition Zrotation Yrotation Xrotation
  JOINT abdomen
  {
    OFFSET 0 20.6881 -0.73152
    CHANNELS 3 Zrotation Xrotation Yrotation
    JOINT chest
    {
      OFFSET 0 11.7043 -0.48768
      CHANNELS 3 Zrotation Xrotation Yrotation
      JOINT neck
      {
        OFFSET 0 22.1894 -2.19456
        CHANNELS 3 Zrotation Xrotation Yrotation
        JOINT head
        {
          OFFSET -0.24384 7.07133 1.2192
          CHANNELS 3 Zrotation Xrotation Yrotation
          JOINT leftEye
          {
            OFFSET 4.14528 8.04674 8.04672
            CHANNELS 3 Zrotation Xrotation Yrotation
            End Site
            {
              OFFSET 1 0 0
            }
          }
          JOINT rightEye
          {
            OFFSET -3.6576 8.04674 8.04672
            CHANNELS 3 Zrotation Xrotation Yrotation
            End Site
            {
              OFFSET 1 0 0
            }
          }
        }
      }
      JOINT rCollar
      {
        OFFSET -2.68224 19.2634 -4.8768
        CHANNELS 3 Zrotation Xrotation Yrotation
        JOINT rShldr
        {
          OFFSET -8.77824 -1.95073 1.46304
          CHANNELS 3 Zrotation Xrotation Yrotation
          JOINT rForeArm
          {
            OFFSET -28.1742 -1.7115 0.48768
            CHANNELS 3 Zrotation Xrotation Yrotation
            JOINT rHand
            {
              OFFSET -22.5879 0.773209 7.07136
              CHANNELS 3 Zrotation Xrotation Yrotation
              JOINT rThumb1
              {
                OFFSET -1.2192 -0.487915 3.41376
                CHANNELS 3 Zrotation Xrotation Yrotation
                JOINT rThumb2
                {
                  OFFSET -3.37035 -0.52449 3.41376
                  CHANNELS 3 Zrotation Xrotation Yrotation
                  End Site
                  {
                    OFFSET -1.78271 -1.18214 1.43049
                  }
                }
              }
              JOINT rIndex1
              {
                OFFSET -7.75947 0.938293 5.60832
                CHANNELS 3 Zrotation Xrotation Yrotation
                JOINT rIndex2
                {
                  OFFSET -2.54057 -0.884171 1.56538
                  CHANNELS 3 Zrotation Xrotation Yrotation
                  End Site
                  {
                    OFFSET -1.62519 -0.234802 1.16502
                  }
                }
              }
              JOINT rMid1
              {
                OFFSET -8.24714 1.18213 3.41376
                CHANNELS 3 Zrotation Xrotation Yrotation
                JOINT rMid2
                {
                  OFFSET -3.10165 -0.590103 1.0647
                  CHANNELS 3 Zrotation Xrotation Yrotation
                  End Site
                  {
                    OFFSET -2.48547 -0.328903 0.83742
                  }
                }
              }
              JOINT rRing1
              {
                OFFSET -8.82822 0.546677 1.51678
                CHANNELS 3 Zrotation Xrotation Yrotation
                JOINT rRing2
                {
                  OFFSET -2.60934 -0.819778 -0.0198488
                  CHANNELS 3 Zrotation Xrotation Yrotation
                  End Site
                  {
                    OFFSET -2.33842 -0.294052 0.168128
                  }
                }
              }
              JOINT rPinky1
              {
                OFFSET -8.27202 -0.0477905 -0.4584
                CHANNELS 3 Zrotation Xrotation Yrotation
                JOINT rPinky2
                {
                  OFFSET -1.82734 -0.647385 -0.700984
                  CHANNELS 3 Zrotation Xrotation Yrotation
                  End Site
                  {
                    OFFSET -1.69225 -0.51767 -0.607171
                  }
                }
              }
            }
          }
        }
      }
      JOINT lCollar
      {
        OFFSET 2.68224 19.2634 -4.8768
        CHANNELS 3 Zrotation Xrotation Yrotation
        JOINT lShldr
        {
          OFFSET 8.77824 -1.95073 1.46304
          CHANNELS 3 Zrotation Xrotation Yrotation
          JOINT lForeArm
          {
            OFFSET 28.1742 -1.7115 0.48768
            CHANNELS 3 Zrotation Xrotation Yrotation
            JOINT lHand
            {
              OFFSET 22.5879 0.773209 7.07136
              CHANNELS 3 Zrotation Xrotation Yrotation
              JOINT lThumb1
              {
                OFFSET 1.2192 -0.487915 3.41376
                CHANNELS 3 Zrotation Xrotation Yrotation
                JOINT lThumb2
                {
                  OFFSET 3.37035 -0.52449 3.41376
                  CHANNELS 3 Zrotation Xrotation Yrotation
                  End Site
                  {
                    OFFSET 1.78271 -1.18214 1.43049
                  }
                }
              }
              JOINT lIndex1
              {
                OFFSET 7.75947 0.938293 5.60832
                CHANNELS 3 Zrotation Xrotation Yrotation
                JOINT lIndex2
                {
                  OFFSET 2.54057 -0.884171 1.56538
                  CHANNELS 3 Zrotation Xrotation Yrotation
                  End Site
                  {
                    OFFSET 1.62519 -0.234802 1.16502
                  }
                }
              }
              JOINT lMid1
              {
                OFFSET 8.24714 1.18213 3.41376
                CHANNELS 3 Zrotation Xrotation Yrotation
                JOINT lMid2
                {
                  OFFSET 3.10165 -0.590103 1.0647
                  CHANNELS 3 Zrotation Xrotation Yrotation
                  End Site
                  {
                    OFFSET 2.48547 -0.328903 0.83742
                  }
                }
              }
              JOINT lRing1
              {
                OFFSET 8.82822 0.546677 1.51678
                CHANNELS 3 Zrotation Xrotation Yrotation
                JOINT lRing2
                {
                  OFFSET 2.60934 -0.819778 -0.0198488
                  CHANNELS 3 Zrotation Xrotation Yrotation
                  End Site
                  {
                    OFFSET 2.33842 -0.294052 0.168128
                  }
                }
              }
              JOINT lPinky1
              {
                OFFSET 8.27202 -0.0477905 -0.4584
                CHANNELS 3 Zrotation Xrotation Yrotation
                JOINT lPinky2
                {
                  OFFSET 1.82734 -0.647385 -0.700984
                  CHANNELS 3 Zrotation Xrotation Yrotation
                  End Site
                  {
                    OFFSET 1.69225 -0.51767 -0.607171
                  }
                }
              }
            }
          }
        }
      }
    }
  }
  JOINT rButtock
  {
    OFFSET -8.77824 4.35084 1.2192
    CHANNELS 3 Zrotation Xrotation Yrotation
    JOINT rThigh
    {
      OFFSET 0 -1.70687 -2.19456
      CHANNELS 3 Zrotation Xrotation Yrotation
      JOINT rShin
      {
        OFFSET 0 -36.8199 0.73152
        CHANNELS 3 Zrotation Xrotation Yrotation
        JOINT rFoot
        {
          OFFSET 0.73152 -45.1104 -5.12064
          CHANNELS 3 Zrotation Xrotation Yrotation
          End Site
          {
            OFFSET -1.1221 -3.69964 12.103
          }
        }
      }
    }
  }
  JOINT lButtock
  {
    OFFSET 8.77824 4.35084 1.2192
    CHANNELS 3 Zrotation Xrotation Yrotation
    JOINT lThigh
    {
      OFFSET 0 -1.70687 -2.19456
      CHANNELS 3 Zrotation Xrotation Yrotation
      JOINT lShin
      {
        OFFSET 0 -36.8199 0.73152
        CHANNELS 3 Zrotation Xrotation Yrotation
        JOINT lFoot
        {
          OFFSET -0.73152 -45.1104 -5.12064
          CHANNELS 3 Zrotation Xrotation Yrotation
          End Site
          {
            OFFSET 1.1221 -3.69964 12.103
          }
        }
      }
    }
  }
}
MOTION
Frames:	9
Frame Time:	0.00833333
87.1371 67.3113 1.38413 177.917 -19.9237 -174.016 -13.6425 -0.734614 8.63184 -8.22549 -9.93679 1.20865 -5.01279 -4.32699 1.90476 26.5872 7.67613 1.37686 -0.0 0.0 0.0 -0.0 0.0 0.0 -5.17585e-14 8.5494e-14 -1.24687e-13 49.6398 -20.0856 13.9982 -20.4263 -53.0109 113.169 -133.005 -77.2227 -141.706 -7.93461e-11 6.91918e-11 -3.05481e-10 -1.10346e-10 1.18528e-10 -5.18561e-10 -7.93418e-11 6.91869e-11 -3.05489e-10 7.73091 5.47488 0.417314 -7.93497e-11 6.91844e-11 -3.05482e-10 2.90554 0.965183 0.102902 -7.93409e-11 6.91857e-11 -3.05484e-10 10.2786 0.731801 0.0259123 -7.93574e-11 6.91883e-11 -3.05473e-10 2.22167 -0.733487 -0.20892 -5.18106e-14 8.55108e-14 -1.25168e-13 3.39417 49.8726 -21.1653 28.3655 -33.6863 -73.1836 0.0183675 3.86737 -0.544357 -2.19815e-10 -7.85133e-10 6.75987e-10 -3.76967e-10 -1.33211e-09 1.16856e-09 -2.19816e-10 -7.85119e-10 6.75998e-10 -7.73091 5.47488 -0.417314 -2.19814e-10 -7.85131e-10 6.75987e-10 -2.90554 0.965183 -0.102902 -2.19813e-10 -7.85131e-10 6.75984e-10 -10.2786 0.731801 -0.0259123 -2.19804e-10 -7.85109e-10 6.75974e-10 -2.22167 -0.733487 0.20892 -2.03217e-16 0.0 -3.88251e-19 3.21303 -31.9044 -27.3604 -0.709129 52.3254 1.01 -4.09422 -20.1754 -6.29022 2.03217e-16 0.0 3.88251e-19 27.2258 -26.0996 41.7359 111.335 88.8415 -111.704 1.24563 1.49486 -0.912131
87.5463 67.4877 1.19082 177.944 -20.0012 -173.972 -13.5926 -0.805972 8.462 -8.19822 -9.87953 1.17269 -4.85914 -4.22148 1.94137 26.2698 7.60354 1.43716 -0.0 0.0 0.0 -0.0 0.0 0.0 -3.1791e-14 6.36022e-14 -4.10987e-14 49.1596 -21.2576 14.2197 -20.6471 -52.8325 112.62 -133.854 -76.9784 -142.576 -3.73111e-11 8.0468e-12 -6.46193e-11 -5.86029e-11 1.4303e-11 -1.11524e-10 -3.73067e-11 8.04203e-12 -6.46257e-11 7.73091 5.47488 0.417314 -3.73156e-11 8.03835e-12 -6.46193e-11 2.90554 0.965183 0.102902 -3.7304e-11 8.04064e-12 -6.46233e-11 10.2786 0.731801 0.0259123 -3.73232e-11 8.04283e-12 -6.4613e-11 2.22167 -0.733487 -0.20892 -3.18223e-14 6.36204e-14 -4.15957e-14 3.41868 50.2608 -21.3595 28.3772 -33.8737 -73.4932 0.0169677 3.71623 -0.523022 1.08301e-10 6.23967e-10 -7.18805e-13 1.87474e-10 1.07989e-09 -1.65866e-12 1.08299e-10 6.2397e-10 -7.09264e-13 -7.73091 5.47488 -0.417314 1.08302e-10 6.2397e-10 -7.18805e-13 -2.90554 0.965183 -0.102902 1.08302e-10 6.2397e-10 -7.21986e-13 -10.2786 0.731801 -0.0259123 1.08315e-10 6.23997e-10 -7.31528e-13 -2.22167 -0.733487 0.20892 -2.03217e-16 0.0 -3.88251e-19 3.59492 -31.6064 -27.4488 -0.690786 51.702 0.957763 -3.95629 -19.7076 -5.91637 2.03217e-16 0.0 3.88251e-19 26.0359 -25.6596 41.6952 109.564 88.851 -109.888 1.46536 2.21431 -3.95296
87.9669 67.6658 0.985619 177.994 -20.0263 -173.94 -13.4833 -0.88915 8.30547 -8.16524 -9.82946 1.1433 -4.68525 -4.07972 1.98842 25.9017 7.53285 1.50968 -0.0 0.0 0.0 -0.0 0.0 0.0 1.11693e-14 -1.99219e-14 4.57772e-14 48.6435 -22.3569 14.4285 -20.8914 -52.6289 112.004 -134.213 -76.8711 -142.945 2.29834e-10 -2.6485e-11 2.38447e-10 3.6916e-10 -4.68988e-11 4.1599e-10 2.29837e-10 -2.64866e-11 2.3844e-10 7.73091 5.47488 0.417314 2.2983e-10 -2.64897e-11 2.38447e-10 2.90554 0.965183 0.102902 2.29842e-10 -2.64874e-11 2.38443e-10 10.2786 0.731801 0.0259123 2.29823e-10 -2.6486e-11 2.38452e-10 2.22167 -0.733487 -0.20892 1.11438e-14 -1.9909e-14 4.52977e-14 3.48208 50.6961 -21.5913 28.3859 -34.0288 -73.7504 0.0153705 3.54197 -0.49843 4.09495e-10 1.9487e-09 -6.82205e-10 7.05314e-10 3.34426e-09 -1.18024e-09 4.09492e-10 1.9487e-09 -6.82198e-10 -7.73091 5.47488 -0.417314 4.09496e-10 1.9487e-09 -6.82205e-10 -2.90554 0.965183 -0.102902 4.09493e-10 1.9487e-09 -6.82209e-10 -10.2786 0.731801 -0.0259123 4.09508e-10 1.94873e-09 -6.82219e-10 -2.22167 -0.733487 0.20892 -2.03217e-16 0.0 -3.88251e-19 4.05455 -31.3014 -27.5175 -0.673297 51.0764 0.902464 -3.83559 -19.1792 -5.58107 2.03217e-16 0.0 3.88251e-19 24.8249 -25.2507 41.6094 88.5648 88.9205 -88.8419 1.74769 2.5743 -7.32007
88.4113 67.8463 0.792288 178.091 -20.1086 -173.905 -13.3352 -0.975051 8.15277 -8.1236 -9.78389 1.11739 -4.49389 -3.90856 2.04358 25.4913 7.45758 1.59321 -0.0 0.0 0.0 -0.0 0.0 0.0 7.05834e-14 -1.47599e-13 1.35174e-13 48.0961 -23.4113 14.6277 -21.155 -52.4001 111.331 -134.328 -76.8364 -143.064 6.45342e-10 -3.30128e-11 5.74198e-10 1.04549e-09 -6.27094e-11 1.00887e-09 6.45343e-10 -3.30091e-11 5.74192e-10 7.73091 5.47488 0.417314 6.45339e-10 -3.30105e-11 5.742e-10 2.90554 0.965183 0.102902 6.45349e-10 -3.30088e-11 5.74196e-10 10.2786 0.731801 0.0259123 6.45333e-10 -3.30084e-11 5.74204e-10 2.22167 -0.733487 -0.20892 7.05552e-14 -1.47596e-13 1.34736e-13 3.59121 51.1702 -21.8632 28.3932 -34.1611 -73.9668 0.0136534 3.34116 -0.470105 6.76097e-10 3.14463e-09 -1.36194e-09 1.16333e-09 5.38436e-09 -2.35581e-09 6.76092e-10 3.14463e-09 -1.36194e-09 -7.73091 5.47488 -0.417314 6.76098e-10 3.14463e-09 -1.36194e-09 -2.90554 0.965183 -0.102902 6.76092e-10 3.14463e-09 -1.36195e-09 -10.2786 0.731801 -0.0259123 6.76107e-10 3.14466e-09 -1.36196e-09 -2.22167 -0.733487 0.20892 -2.03217e-16 0.0 -3.88251e-19 4.56658 -30.9845 -27.5812 -0.65663 50.4401 0.844869 -3.7229 -18.6 -5.26241 2.03217e-16 0.0 3.88251e-19 23.5699 -24.8614 41.4652 53.6056 88.6698 -53.8349 2.04644 2.62924 -10.9874
88.8955 68.1527 0.574485 178.14 -20.209 -173.809 -13.2028 -1.08697 8.00264 -8.06709 -9.74154 1.09323 -4.27688 -3.74881 2.10441 25.0526 7.41871 1.67148 -0.0 0.0 0.0 -0.0 0.0 0.0 1.23343e-13 -2.57932e-13 2.2785e-13 47.5205 -24.4292 14.8066 -21.4347 -52.1499 110.606 -134.294 -76.8469 -143.028 1.04749e-09 -3.23126e-11 9.28198e-10 1.69774e-09 -6.79232e-11 1.63156e-09 1.04748e-09 -3.2304e-11 9.28191e-10 7.73091 5.47488 0.417314 1.04748e-09 -3.23037e-11 9.282e-10 2.90554 0.965183 0.102902 1.04749e-09 -3.23026e-11 9.28197e-10 10.2786 0.731801 0.0259123 1.04748e-09 -3.23033e-11 9.28204e-10 2.22167 -0.733487 -0.20892 1.23304e-13 -2.57938e-13 2.27461e-13 3.7554 51.6626 -22.1807 28.3996 -34.2815 -74.1623 0.0123745 3.1772 -0.446988 9.61688e-10 4.33897e-09 -2.01116e-09 1.65425e-09 7.42011e-09 -3.4787e-09 9.61681e-10 4.33897e-09 -2.01116e-09 -7.73091 5.47488 -0.417314 9.61688e-10 4.33897e-09 -2.01117e-09 -2.90554 0.965183 -0.102902 9.61681e-10 4.33897e-09 -2.01117e-09 -10.2786 0.731801 -0.0259123 9.61695e-10 4.33899e-09 -2.01118e-09 -2.22167 -0.733487 0.20892 -2.03217e-16 0.0 -3.88251e-19 5.06683 -30.6964 -27.6613 -0.641939 49.8293 0.789067 -3.58508 -17.9662 -4.88294 2.03217e-16 0.0 3.88251e-19 22.2733 -24.5075 41.2747 29.5627 87.8575 -29.7472 2.35239 2.68848 -14.5585
89.3024 68.1879 0.435558 178.201 -20.2557 -173.659 -13.1408 -1.24822 7.85383 -7.98947 -9.70111 1.06906 -4.02581 -3.6413 2.16848 24.5994 7.45727 1.72829 -0.0 0.0 0.0 -0.0 0.0 0.0 1.46339e-13 -2.89426e-13 3.24566e-13 46.9189 -25.4189 14.9546 -21.7273 -51.8825 109.835 -134.201 -76.8751 -142.933 1.27454e-09 -4.51607e-11 1.28601e-09 2.05328e-09 -9.73345e-11 2.24846e-09 1.27454e-09 -4.515e-11 1.286e-09 7.73091 5.47488 0.417314 1.27454e-09 -4.51486e-11 1.28601e-09 2.90554 0.965183 0.102902 1.27455e-09 -4.51479e-11 1.28601e-09 10.2786 0.731801 0.0259123 1.27454e-09 -4.51492e-11 1.28601e-09 2.22167 -0.733487 -0.20892 1.46282e-13 -2.89435e-13 3.24218e-13 3.98372 52.1529 -22.5488 28.4053 -34.4007 -74.3571 0.0119037 3.11347 -0.438005 1.31985e-09 5.65893e-09 -2.60111e-09 2.27082e-09 9.67145e-09 -4.49922e-09 1.31984e-09 5.65893e-09 -2.60111e-09 -7.73091 5.47488 -0.417314 1.31985e-09 5.65892e-09 -2.60111e-09 -2.90554 0.965183 -0.102902 1.31984e-09 5.65892e-09 -2.60112e-09 -10.2786 0.731801 -0.0259123 1.31985e-09 5.65894e-09 -2.60113e-09 -2.22167 -0.733487 0.20892 -2.03217e-16 0.0 -3.88251e-19 5.49127 -30.4777 -27.7786 -0.629901 49.2802 0.73876 -3.39292 -17.2731 -4.36643 2.03217e-16 0.0 3.88251e-19 20.9369 -24.2051 41.0497 17.8995 86.6247 -18.0458 2.72707 3.05231 -17.6407
89.7544 68.3937 0.240102 178.254 -20.2734 -173.489 -13.1688 -1.48109 7.71181 -7.89039 -9.66397 1.04548 -3.72314 -3.60665 2.23678 24.1181 7.60891 1.75228 -0.0 0.0 0.0 -0.0 0.0 0.0 1.25103e-13 -2.0291e-13 4.34248e-13 46.2872 -26.3818 15.0622 -22.0315 -51.594 109.02 -134.089 -76.9085 -142.818 1.25602e-09 -8.04738e-11 1.63216e-09 1.99394e-09 -1.65042e-10 2.82867e-09 1.25602e-09 -8.04654e-11 1.63216e-09 7.73091 5.47488 0.417314 1.25601e-09 -8.04641e-11 1.63217e-09 2.90554 0.965183 0.102902 1.25602e-09 -8.04632e-11 1.63216e-09 10.2786 0.731801 0.0259123 1.25601e-09 -8.04646e-11 1.63217e-09 2.22167 -0.733487 -0.20892 1.25011e-13 -2.02909e-13 4.33932e-13 4.30949 52.6592 -22.9932 28.4106 -34.5261 -74.5631 0.0124554 3.18807 -0.448521 1.76027e-09 7.92619e-09 -3.05534e-09 3.02997e-09 1.35626e-08 -5.28492e-09 1.76027e-09 7.92619e-09 -3.05534e-09 -7.73091 5.47488 -0.417314 1.76027e-09 7.92619e-09 -3.05534e-09 -2.90554 0.965183 -0.102902 1.76027e-09 7.92619e-09 -3.05535e-09 -10.2786 0.731801 -0.0259123 1.76028e-09 7.92621e-09 -3.05536e-09 -2.22167 -0.733487 0.20892 -2.03217e-16 0.0 -3.88251e-19 5.84047 -30.328 -27.9055 -0.618242 48.7594 0.693685 -3.14021 -16.5253 -3.68422 2.03217e-16 0.0 3.88251e-19 19.5387 -23.9626 40.7838 11.7333 85.0283 -11.8504 3.28895 3.88357 -20.4064
90.1972 68.6013 0.0487517 178.22 -20.257 -173.238 -13.2566 -1.76785 7.57543 -7.77275 -9.63023 1.02307 -3.37818 -3.61984 2.31008 23.607 7.84352 1.75449 -0.0 0.0 0.0 -0.0 0.0 0.0 7.47299e-14 -3.87727e-14 5.53584e-13 45.6219 -27.3144 15.1352 -22.3451 -51.2809 108.162 -133.903 -76.9635 -142.627 1.08729e-09 -1.26046e-10 1.97824e-09 1.68026e-09 -2.50882e-10 3.3983e-09 1.08729e-09 -1.26043e-10 1.97823e-09 7.73091 5.47488 0.417314 1.08728e-09 -1.26042e-10 1.97825e-09 2.90554 0.965183 0.102902 1.08729e-09 -1.2604e-10 1.97824e-09 10.2786 0.731801 0.0259123 1.08728e-09 -1.26042e-10 1.97824e-09 2.22167 -0.733487 -0.20892 7.4587e-14 -3.87542e-14 5.53299e-13 4.72335 53.1832 -23.5083 28.4155 -34.6507 -74.7674 0.0138204 3.36013 -0.472781 2.25592e-09 1.08103e-08 -3.41211e-09 3.88486e-09 1.85211e-08 -5.90203e-09 2.25591e-09 1.08103e-08 -3.41211e-09 -7.73091 5.47488 -0.417314 2.25592e-09 1.08103e-08 -3.41211e-09 -2.90554 0.965183 -0.102902 2.25592e-09 1.08103e-08 -3.41212e-09 -10.2786 0.731801 -0.0259123 2.25592e-09 1.08103e-08 -3.41212e-09 -2.22167 -0.733487 0.20892 -2.03217e-16 0.0 -3.88251e-19 6.14237 -30.2291 -28.0415 -0.606924 48.2618 0.651863 -2.85345 -15.7209 -2.88292 2.03217e-16 0.0 3.88251e-19 18.0854 -23.7688 40.4727 8.14852 83.0931 -8.24216 4.03113 4.97108 -22.9834
90.6703 68.8205 -0.131788 178.283 -20.2897 -172.954 -13.3839 -2.07186 7.43345 -7.63516 -9.59674 1.00003 -3.02283 -3.65318 2.38558 23.0977 8.10346 1.75224 -0.0 0.0 0.0 -0.0 0.0 0.0 1.64514e-14 1.45145e-13 6.64972e-13 44.9267 -28.2186 15.1857 -22.6652 -50.9481 107.267 -133.59 -77.0551 -142.306 8.55424e-10 -1.70969e-10 2.35034e-09 1.25774e-09 -3.38255e-10 4.00734e-09 8.55427e-10 -1.70971e-10 2.35034e-09 7.73091 5.47488 0.417314 8.55419e-10 -1.70971e-10 2.35035e-09 2.90554 0.965183 0.102902 8.55432e-10 -1.70969e-10 2.35034e-09 10.2786 0.731801 0.0259123 8.5542e-10 -1.7097e-10 2.35035e-09 2.22167 -0.733487 -0.20892 1.62644e-14 1.45179e-13 6.6471e-13 5.16622 53.6796 -24.0474 28.4193 -34.763 -74.9524 0.0156737 3.57458 -0.503033 2.80525e-09 1.27104e-08 -3.81473e-09 4.83249e-09 2.17717e-08 -6.59889e-09 2.80525e-09 1.27104e-08 -3.81472e-09 -7.73091 5.47488 -0.417314 2.80525e-09 1.27104e-08 -3.81473e-09 -2.90554 0.965183 -0.102902 2.80525e-09 1.27104e-08 -3.81473e-09 -10.2786 0.731801 -0.0259123 2.80526e-09 1.27104e-08 -3.81474e-09 -2.22167 -0.733487 0.20892 -2.03217e-16 0.0 -3.88251e-19 6.37409 -30.1948 -28.2484 -0.599398 47.8667 0.613958 -2.5555 -14.8459 -1.99978 2.03217e-16 0.0 3.88251e-19 16.6215 -23.6117 40.131 5.95258 80.9113 -6.02399 4.80319 6.07357 -24.9079
